<?xml version="1.0" encoding="UTF-8" standalone="no"?>
<!-- Created with Inkscape (http://www.inkscape.org/) -->

<svg
   xmlns:dc="http://purl.org/dc/elements/1.1/"
   xmlns:cc="http://creativecommons.org/ns#"
   xmlns:rdf="http://www.w3.org/1999/02/22-rdf-syntax-ns#"
   xmlns:svg="http://www.w3.org/2000/svg"
   xmlns="http://www.w3.org/2000/svg"
   xmlns:sodipodi="http://sodipodi.sourceforge.net/DTD/sodipodi-0.dtd"
   xmlns:inkscape="http://www.inkscape.org/namespaces/inkscape"
   sodipodi:docname="igel.svg"
   inkscape:version="0.48.2 r9819"
   sodipodi:version="0.32"
   id="svg1770"
   height="117.44994"
   width="216.23215"
   version="1.0"
   inkscape:export-filename="/home/pascal/projekte/html5/jan/wp/wp-content/themes/jan1/images/igel.png"
   inkscape:export-xdpi="76.584358"
   inkscape:export-ydpi="76.584358">
  <defs
     id="defs3" />
  <sodipodi:namedview
     inkscape:window-y="64"
     inkscape:window-x="468"
     inkscape:window-height="852"
     inkscape:window-width="1342"
     inkscape:current-layer="layer1"
     inkscape:document-units="px"
     inkscape:cy="44.39771"
     inkscape:cx="97.381782"
     inkscape:zoom="3.7802317"
     inkscape:pageshadow="2"
     inkscape:pageopacity="0.0"
     borderopacity="1.0"
     bordercolor="#666666"
     pagecolor="#ffffff"
     id="base"
     showgrid="false"
     inkscape:window-maximized="0" />
  <metadata
     id="metadata4">
    <rdf:RDF>
      <cc:Work
         rdf:about="">
        <dc:format>image/svg+xml</dc:format>
        <dc:type
           rdf:resource="http://purl.org/dc/dcmitype/StillImage" />
        <dc:title></dc:title>
      </cc:Work>
    </rdf:RDF>
  </metadata>
  <g
     id="layer1"
     inkscape:groupmode="layer"
     inkscape:label="Layer 1"
     transform="translate(-266.8839,-473.6372)">
    <path
       style="opacity:1;fill:#ffffff;fill-opacity:1;stroke:none"
       d="M 88.9375 31.59375 C 88.662779 31.589469 88.392264 31.602888 88.125 31.65625 C 70.79122 33.77271 55.12577 43.35938 42.4375 54.875 C 41.46693 59.76593 47.94054 57.92244 50.1875 56.1875 C 56.38907 53.14606 63.49573 47.87667 68.1875 44.6875 C 64.51132 47.37858 63.11734 51.78631 64.21875 56.1875 C 65.0342 61.9945 60.92573 66.29152 58.1875 70.6875 C 58.6088 75.78955 64.99052 72.31107 67.90625 71.46875 C 70.99612 70.36179 74.00067 69.02747 76.9375 67.59375 C 73.196246 70.644749 68.309948 71.560656 64.3125 74 C 64.166178 73.986271 64.038997 73.97133 63.875 73.96875 L 63.34375 74.03125 C 59.56895 75.36977 55.30418 73.95955 51.71875 75.84375 C 51.22911 81.5012 58.88654 79.12627 62.1875 78.84375 C 62.472231 78.87499 62.75639 78.849109 63.03125 78.8125 C 62.737441 78.915411 62.414457 79.020459 61.96875 79.125 C 55.81662 81.59988 47.30373 80.15294 44.90625 73.21875 C 42.0207 69.95417 40.74928 64.67823 36.65625 62.84375 C 32.46327 64.06803 35.94633 69.95884 37.25 72.84375 C 37.83635 73.59619 38.95307 77.95978 37.625 77.15625 C 36.35077 72.70437 35.13669 66.95219 30.40625 64.96875 C 25.81 68.44963 30.84387 75.11993 28.40625 79.1875 C 25.4698 79.85252 28.30297 74.68187 27.5 73.15625 C 27.77901 69.6452 26.17133 66.49663 24.875 63.34375 C 19.17161 70.2119 18.53238 81.17233 23.34375 88.625 C 32.5654 98.25211 47.73645 96.16253 59.03125 92.03125 C 72.9461 86.57423 85.40815 74.1208 101.5 76.96875 C 105.73081 77.69632 113.26653 79.95679 110.75 85.71875 C 106.86401 90.07914 99.58633 88.30375 94.21875 88.28125 C 88.03477 87.39152 82.17662 81.66462 75.71875 85.1875 C 73.02698 86.74501 66.20277 89.74361 69.9375 93.4375 C 79.28132 98.96658 89.59763 104.02762 100.5625 104.84375 C 109.00815 106.40599 115.63494 97.2753 124.0625 100.96875 C 128.4845 103.09254 133.38199 105.57463 138.28125 102.875 C 141.75269 102.67344 144.20347 98.19563 140.34375 96.53125 C 137.11642 94.49013 133.04156 93.26244 129.71875 92 C 133.05827 89.21999 137.10872 92.79461 140.3125 93.90625 C 140.03252 90.13736 144.33374 88.78406 145 85.59375 C 147.16723 84.24691 151.02816 80.9456 146.59375 79.46875 C 143.7788 78.66649 139.09486 79.23427 137.3125 78.1875 C 139.95093 76.84364 146.51637 72.23888 141.3125 70.15625 C 138.47298 69.86073 134.57978 71.42856 133.625 67.65625 C 132.21979 65.57151 127.52641 64.18631 130.4375 61.28125 C 133.2851 58.47319 137.73968 57.66884 141.0625 55.46875 C 136.88843 54.21159 130.13119 57.0773 127.65625 52.71875 C 123.79797 51.90092 119.58602 54.18227 116.03125 51.65625 C 113.10815 50.03051 109.78384 53.77845 107.46875 52.6875 C 108.69444 46.43597 119.60253 48.41864 119.34375 41.28125 C 117.52818 37.29654 113.24518 42.39794 111.09375 41.40625 C 113.39438 38.95514 110.92911 34.61089 107.625 36.4375 C 104.5227 37.02593 101.64861 40.86652 98.75 40.625 C 98.61777 38.37175 97.89434 34.88925 94.65625 35.96875 C 93.28736 36.29542 89.18689 37.87115 91.34375 35.125 C 92.741125 33.009591 90.86055 31.62372 88.9375 31.59375 z M 11.625 47.1875 C 6.36821 49.24734 9.26935 60.85816 15.1875 58.03125 C 18.62081 55.15528 16.0248 47.1014 11.625 47.1875 z M 59.5625 53.15625 C 59.254259 53.144525 58.931991 53.165346 58.5625 53.21875 C 53.69092 53.51351 52.69597 58.40976 50.03125 61.3125 C 47.45227 64.07747 40.68161 58.60693 41.5 64.65625 C 45.54469 71.99631 57.41928 70.73355 60.5625 63.0625 C 62.170575 60.45475 64.18611 53.332128 59.5625 53.15625 z M 92.96875 77.71875 C 89.987133 77.558299 87.124225 81.220816 90.34375 83.21875 C 93.49423 87.328 100.193 81.13129 95.875 78.15625 C 95.18372 77.75503 94.33519 77.7366 93.5625 77.8125 C 93.364414 77.766283 93.167524 77.729447 92.96875 77.71875 z M 101.65625 79.59375 C 97.03113 80.57537 98.27416 88.10633 103.3125 87.03125 C 107.25226 86.87153 109.04817 80.87168 104.46875 80.0625 C 103.55047 79.85029 102.59741 79.4846 101.65625 79.59375 z M 120.59375 81.34375 C 120.72447 86.62639 115.30604 90.76801 110.71875 91.1875 C 114.6746 89.0252 118.76547 85.51458 120.59375 81.34375 z M 143.4375 91.5625 C 143.23484 91.558218 143.01635 91.56236 142.8125 91.59375 C 138.40167 92.69503 142.22356 97.10863 145 97.75 C 147.98896 99.54901 153.56978 103.64871 156.1875 99.59375 C 155.32603 94.80899 148.95078 93.9436 145.21875 91.875 C 144.63169 91.719487 144.04547 91.575347 143.4375 91.5625 z M 179.53125 100.15625 C 178.44127 100.14704 177.33803 100.16132 176.25 100.1875 C 170.73449 100.0457 165.48126 101.30868 161 104.5 C 157.24199 103.65591 155.20239 109.06554 159.3125 109.8125 C 167.23623 110.99233 175.37087 110.63831 183.28125 109.65625 C 183.76573 109.82796 184.44519 109.76203 185.40625 109.375 C 185.65575 109.34044 185.90729 109.31691 186.15625 109.28125 C 186.15208 109.25101 186.16 109.21814 186.15625 109.1875 C 189.46409 108.48922 196.15266 108.31268 194.96875 103.6875 C 192.49377 101.286 188.73957 100.90579 185.21875 100.5625 C 184.68682 100.20037 183.91078 100.04315 182.78125 100.25 C 181.69479 100.18415 180.62123 100.16546 179.53125 100.15625 z M 148.34375 100.84375 C 147.98028 100.856 147.62929 100.88815 147.28125 100.96875 C 144.34726 101.2163 137.71366 103.62282 141.46875 106.9375 C 145.26044 108.16283 152.62419 110.81149 153.6875 105.0625 C 153.61759 102.30192 150.88807 100.75803 148.34375 100.84375 z M 124.84375 106.84375 C 124.36586 106.82547 123.87959 106.85039 123.40625 106.875 C 119.94953 107.31588 112.50643 106.04416 113.28125 111.5 C 119.558 115.47639 127.99261 114.70076 135.1875 114.21875 C 138.67092 114.64713 142.1106 110.29699 138.1875 108.25 C 134.27545 106.98517 129.97413 109.47777 126.25 107.0625 C 125.79115 106.9235 125.32164 106.86203 124.84375 106.84375 z M 98.0625 107.03125 C 97.734478 107.02499 97.380094 107.03654 96.96875 107.0625 C 94.66876 107.43525 91.95781 106.74313 93.59375 110.125 C 93.13385 112.99646 99.98941 112.2757 100.3125 110.71875 C 100.71357 107.97855 100.35866 107.0751 98.0625 107.03125 z "
       transform="translate(266.8839,473.6372)"
       id="path3751" />
    <path
       d="M 389.20648,498.84716 C 389.30413,499.43603 387.06195,499.81786 386.84905,499.20654 C 386.66644,498.69286 389.15179,498.51757 389.20648,498.84716 z M 351.77581,497.48827 C 351.33343,498.09667 351.29632,498.4287 350.33734,498.52099 C 350.71234,495.64599 352.81097,493.79345 353.81097,491.79345 C 356.31097,488.35595 358.93597,485.60595 360.93597,482.60595 C 363.18597,480.48095 365.68597,478.48095 368.56097,476.98095 C 369.08636,476.55615 369.93597,475.23095 368.31097,474.85595 C 367.31097,473.85595 364.31097,476.60595 364.68597,475.85595 C 354.68597,482.85595 347.93597,491.48095 341.31097,502.35595 C 339.81097,504.85595 337.93597,506.73095 335.31097,508.35595 C 325.56097,513.10595 315.93597,517.60595 307.93597,525.60595 C 306.84417,528.06493 307.93304,528.06493 307.80511,528.57714 C 306.97308,529.3457 305.20159,528.09228 303.45159,529.21728 C 302.04339,530.17773 302.06097,533.23046 299.31097,533.35546 C 296.31097,533.35546 291.31097,534.85595 290.75042,531.14648 C 290.75042,524.14648 289.83636,514.98876 282.31097,511.35595 C 266.20941,510.87353 265.71136,531.18945 267.71136,543.18993 C 268.41742,545.00536 268.77874,546.69579 270.31097,548.35595 C 270.31097,549.35595 273.05023,551.7915 275.05023,552.79052 C 276.12347,553.5454 277.51605,553.604 279.16644,553.09716 C 280.72992,552.61474 281.85101,552.24658 282.82464,553.70751 C 283.24847,560.4829 288.62347,566.1079 297.37347,571.10693 C 306.56097,575.1704 320.62347,573.7954 328.76898,569.1079 C 329.97699,568.89794 331.64398,568.39794 333.43597,570.06493 C 334.47699,570.6079 336.81097,571.3579 339.89398,572.89794 C 345.31097,574.9829 353.893,577.66064 355.84124,578.46923 C 358.06878,579.28564 355.84124,579.58251 353.46429,580.47509 C 352.34613,580.84521 349.08343,583.07275 347.3012,583.59423 C 318.63519,584.78173 322.57074,581.21728 309.14886,582.91943 C 309.14886,582.91943 305.58929,585.36767 311.37347,585.35693 C 319.74847,584.7329 329.43597,588.0454 333.24847,588.29443 C 341.68597,588.2329 348.31097,587.4829 356.18597,589.10693 C 363.12347,589.3579 369.18597,590.1079 374.62347,588.4829 C 375.49847,588.29443 377.06146,588.16943 378.12445,588.6704 C 384.24749,590.4829 394.68695,591.73193 402.68695,590.7329 C 406.99945,589.29443 412.10296,590.27294 413.93695,585.1079 C 414.20062,584.70165 414.95062,584.5454 415.12445,585.35693 C 415.12445,586.3579 414.43499,586.85693 415.43695,587.8579 C 417.68695,590.4829 429.12445,587.7329 432.43499,588.29443 C 434.74945,588.10693 446.93695,588.4829 449.37445,588.9829 C 458.68499,590.1704 471.62249,587.23193 481.12445,588.4829 C 483.62249,588.4829 483.74945,586.4204 481.62445,585.91943 C 470.12249,583.9204 459.37445,585.54443 461.37445,584.1704 C 463.87445,582.73193 465.37445,582.54443 466.37249,580.5454 C 468.62249,575.41943 460.81195,573.1079 456.24749,571.6079 C 448.31195,569.4829 440.30999,569.3579 432.31195,570.35693 C 429.49945,571.1704 427.49945,571.1704 425.99945,570.73193 C 422.56195,568.3579 419.68499,566.9204 415.93499,565.3579 C 414.93695,565.3579 415.37249,564.91943 415.37249,563.9204 C 419.43695,560.04443 419.81195,554.9204 423.80999,555.1079 C 428.12249,555.4829 429.24749,555.16943 434.14398,556.10693 C 437.10296,557.14794 445.18499,559.56493 446.60296,560.56493 C 447.76898,561.14794 450.05999,560.31493 448.35296,558.27294 C 446.14398,555.39794 442.68694,553.89794 440.39398,552.77197 C 440.06195,552.14794 440.14398,551.85595 440.85296,551.93993 C 442.10296,551.89794 446.93694,553.93993 447.43499,552.10595 C 447.89398,550.85595 446.51898,550.77294 446.60296,550.06493 C 448.01898,549.68993 449.60296,550.73095 450.01898,548.89794 C 449.51898,546.27294 443.81195,544.98095 442.76898,544.60595 C 437.64398,542.48095 428.89398,543.06493 425.35296,542.68993 C 424.06194,542.64794 424.26898,541.35595 425.18694,541.10595 C 431.22796,541.06493 437.89398,540.27294 447.65374,543.13622 C 449.93694,543.32372 451.06194,541.32372 448.31194,540.35595 C 444.96624,538.73095 443.43694,538.26122 441.27874,537.51122 C 436.65374,536.3247 432.27874,535.54345 429.80999,535.48095 C 429.46624,535.34814 428.84124,535.26122 429.02874,534.8247 C 431.34124,534.0747 432.52874,533.8872 435.52874,533.8872 C 439.24944,532.41845 436.47405,530.7788 434.30999,530.4497 C 430.40374,529.85595 428.56194,530.0747 424.93499,529.9497 C 424.57366,529.93701 424.15374,529.6997 424.49944,529.2622 C 428.34124,527.7622 430.18499,527.3247 434.30999,527.6372 C 436.68694,526.10595 435.21624,524.7622 434.27874,524.48095 C 432.02874,524.04345 431.18694,523.5122 429.65374,523.3247 C 428.27874,523.4497 428.62444,523.04345 428.65374,522.5122 C 433.99944,518.1372 444.21624,515.98095 446.41937,515.21533 C 446.41937,515.21533 449.29437,513.16845 445.71624,512.3247 C 441.64007,512.29345 433.10687,514.68408 429.96624,515.6372 C 421.37249,512.8872 417.05999,514.35595 413.52874,513.85595 C 413.35687,513.85595 412.77874,513.6372 413.37444,513.16845 C 416.11663,511.00292 425.09124,511.9497 426.02874,510.10595 C 426.89984,508.39257 424.16937,508.2622 424.93499,506.89746 C 426.67327,506.31786 429.56194,506.35595 432.39398,506.35595 C 435.76898,504.18945 432.89398,503.98095 431.68499,502.43945 C 429.31194,496.77246 416.56194,501.77246 411.26898,503.23095 C 408.64398,503.89746 406.26898,505.14746 403.22796,505.85595 C 400.43694,506.23095 397.31194,507.73095 394.81194,506.56445 C 398.49358,506.26855 401.82366,505.19384 404.56194,503.18945 C 406.68694,501.14746 408.22796,498.73095 411.26897,497.27246 C 414.76897,495.68945 420.68694,495.27246 424.60296,495.73095 C 426.31194,495.81445 426.14397,493.56445 424.39397,493.06445 C 422.39397,492.27246 420.80999,492.06445 418.26897,491.64746 C 410.76897,490.31445 403.35296,496.73095 396.64397,492.85595 C 396.14397,492.68945 395.47796,492.23095 396.05999,491.48095 C 398.06194,489.48095 399.56194,488.89746 402.28069,487.41699 C 405.72796,485.43945 411.93694,484.98095 415.80413,485.47656 C 416.97015,485.35693 417.23773,483.35693 416.01898,482.93945 C 410.01898,480.48095 400.81194,481.98095 395.30999,486.35595 C 394.39398,486.52246 393.26898,487.77246 392.30999,488.35595 C 390.18694,489.23095 390.26898,490.06445 387.97796,489.77246 C 387.26898,489.27246 387.56194,489.23095 387.68694,488.81445 C 391.31194,484.81445 394.97796,483.10595 399.95452,480.81591 C 401.68499,480.23095 404.14398,480.10595 404.26898,478.43945 C 403.81194,476.89745 403.26898,477.02245 402.31194,476.98095 C 398.30999,476.98095 389.68499,481.27245 388.76898,482.23095 C 384.76898,485.39746 381.64398,487.52246 378.43499,491.39746 C 375.68597,493.64746 374.26898,494.06445 370.60296,494.93945 C 369.43597,494.68945 370.68597,495.18945 369.35296,494.77246 C 369.31097,494.10595 369.78167,493.62792 370.10296,493.06445 C 373.10296,488.27246 378.35296,483.85595 383.60296,480.23095 C 386.06194,477.81445 390.10296,478.06445 391.06194,475.66845 C 391.23187,475.0747 390.01312,474.1372 389.30999,474.35595 C 386.30999,475.35595 382.31194,476.10595 379.12444,478.16845 C 376.81146,479.04345 374.68597,480.91845 371.81097,482.79345 C 367.81097,486.79345 364.89398,490.23095 360.89398,495.23095 C 360.06097,495.73095 359.85687,496.37499 358.89398,496.10595 C 357.99847,495.85595 358.37347,495.60595 358.89398,494.68945 C 363.49847,488.23095 367.43597,483.23095 374.24847,479.16845 C 375.65472,478.5747 376.43646,477.79345 377.12298,477.60595 C 377.99945,477.0122 378.91937,476.8623 379.71624,476.41845 C 380.74945,476.0122 380.99945,473.91845 378.99749,473.6372 C 367.09222,476.35595 357.77581,486.48827 351.77581,497.48827 z M 277.96331,523.5166 L 278.62445,522.46923 L 279.50726,522.4414 L 279.92034,522.88281 L 280.88617,524.15087 L 281.82367,526.52245 L 281.79534,528.89355 L 281.4096,529.83105 L 280.74749,530.5205 L 279.6723,530.49267 L 278.81781,529.69335 L 278.1557,528.72802 L 277.63226,526.96337 L 277.60492,525.36425 L 277.71527,524.26122 L 277.96331,523.5166 z M 344.06097,509.39745 C 348.10199,508.14745 351.85199,507.02245 356.68597,506.98095 C 357.64495,507.64745 355.60296,508.48095 355.60296,510.48095 C 356.51898,515.98095 365.47796,506.81445 363.43597,514.31445 C 365.51898,518.48095 368.22796,515.27245 370.22796,514.27245 C 372.43597,512.73095 376.51947,510.56445 377.06146,511.89745 C 378.01898,514.06445 374.76898,513.48095 376.60247,516.68945 C 377.19134,517.71874 381.31195,516.98095 382.97796,515.27245 C 383.97796,514.93945 385.14398,514.68945 384.35296,516.31445 C 383.47796,517.98095 383.47796,517.98095 382.35296,518.48095 C 378.51898,519.93945 374.97796,520.56445 372.81097,524.64745 C 372.47796,525.68945 371.81097,527.52245 374.06097,528.73095 C 375.68597,528.85595 378.05999,527.60595 379.39398,526.85595 C 381.76898,525.89745 384.51898,528.06445 386.47796,528.52245 C 390.14398,529.02245 393.93695,526.35595 393.89398,528.56445 C 396.22796,532.06445 399.93695,529.31445 400.39398,530.68945 C 400.22796,531.43945 400.10296,531.10595 399.31195,531.35595 C 396.60296,532.18945 394.76898,534.39794 394.31195,537.35595 C 395.26898,540.89794 399.64398,540.43993 400.18499,544.48095 C 402.39398,547.18993 406.89398,544.81493 408.72796,545.60595 C 408.68695,546.14794 407.93695,547.18993 405.22796,549.23095 C 404.10296,549.60595 401.76898,550.35595 401.56195,552.43993 C 401.77874,554.93993 409.55999,554.02294 413.43695,554.8579 C 414.16937,555.0454 414.21624,555.16943 413.97796,555.6079 C 412.27874,557.38915 411.37445,556.07665 410.37445,558.07665 C 409.90374,558.88915 409.59124,559.9204 409.52874,560.57665 C 409.34124,561.2954 406.31195,561.7954 406.02874,564.76415 C 405.62249,565.20165 404.79632,564.53173 404.30999,564.26415 C 398.87249,561.07665 396.68695,563.07665 393.93695,565.57665 C 393.40374,567.88915 397.59124,566.76415 406.34124,571.63915 C 408.96234,573.09814 407.30999,573.51415 406.96624,573.8579 C 404.27874,575.51415 399.31195,576.76415 396.34124,575.1704 C 385.18499,567.93993 377.89398,574.77294 374.22796,576.14794 C 370.68597,577.14794 366.18597,577.85693 354.31097,573.73193 C 352.12347,572.9204 341.18597,568.1704 339.31097,566.6704 C 337.18597,565.10693 336.37347,565.2329 338.37347,563.5454 C 340.49847,562.3579 344.93597,557.04443 352.68597,560.6704 C 355.99847,563.60693 366.06097,565.5454 375.24847,563.1704 C 375.24847,563.1704 382.68695,560.79443 379.24945,553.9829 C 376.24896,549.98095 370.43597,549.10595 367.06097,548.41845 C 354.81097,547.23095 343.49847,553.7329 333.31097,560.3579 C 325.81097,564.6704 317.93597,566.1704 313.31097,567.1079 C 305.93597,568.0454 299.31097,566.79443 293.7182,563.27587 C 285.87347,558.1079 289.12347,540.85595 291.62054,541.35986 C 292.17913,541.53368 293.31097,546.26122 292.35492,550.06298 C 291.15472,554.6704 293.81097,554.88915 294.81097,554.88915 C 300.62347,554.38915 296.21722,545.41845 297.09222,541.3872 C 297.21429,540.82275 297.48284,540.68408 298.02972,540.79345 C 298.84222,541.60595 299.81097,542.98095 300.84222,544.88622 C 302.21722,547.5747 301.77972,549.48095 302.93597,551.91845 C 303.43597,552.91845 305.90472,554.04443 306.90472,551.44872 C 307.18597,549.41845 306.96722,548.07372 305.96722,546.04345 C 304.84222,543.48095 303.31097,541.91845 303.27972,538.7622 C 303.56097,538.05908 303.57659,538.13622 304.21722,538.41845 C 305.68597,542.52294 309.26898,544.73095 311.14398,549.52294 C 314.31097,555.2329 320.43597,556.48193 326.56097,555.35693 C 328.64398,554.8579 334.31097,553.43993 334.22699,550.10595 C 333.51898,549.02294 330.97699,549.81493 330.31097,550.35595 C 329.31097,550.93993 319.97699,552.10595 319.43597,550.60595 C 320.89398,549.98095 327.26898,551.23095 333.68597,548.31493 C 335.14398,547.89794 345.43597,543.73095 348.72699,539.48095 C 349.22699,538.81493 349.10199,536.06493 345.76898,537.93993 C 344.43597,539.60595 333.43597,544.18993 328.43597,545.18993 C 327.26898,545.35595 326.18597,545.35595 326.97699,544.10595 C 332.49847,538.79345 334.12347,533.04296 332.43597,524.79345 C 332.43597,523.48095 336.12347,519.54345 337.74847,518.23095 C 339.24847,516.16845 337.49847,514.79345 335.49847,515.66845 C 331.93597,518.66845 325.43597,522.60595 323.31097,524.35595 C 321.18597,526.10595 313.12347,529.98095 312.12347,529.98095 C 312.12347,529.98095 308.87347,530.23095 310.99847,528.98095 C 314.81097,525.93944 321.43597,520.56444 324.06097,519.23095 C 325.72699,517.89745 332.47699,514.27245 336.31097,512.39745 C 337.56097,512.02245 341.85199,509.93945 344.06097,509.39745 z M 325.73089,528.51318 C 325.73089,528.51318 328.10199,527.57421 327.65081,531.01025 C 327.13909,534.91552 324.70648,538.88525 321.12152,540.74072 C 317.72796,542.49853 312.67034,541.38134 310.30218,538.18017 C 309.92718,537.67333 309.66156,537.54052 310.1098,536.90087 C 310.68304,536.08056 313.24652,538.88525 317.21624,537.15673 C 318.54046,536.58056 320.60882,534.14697 320.8012,532.03417 C 320.92523,530.67089 324.19378,528.64111 325.73089,528.51318 z M 370.05023,558.84228 C 368.05023,558.84228 366.61273,558.18408 367.47796,556.23974 C 367.85491,555.39501 368.48187,554.73583 369.43792,555.01806 C 369.73577,555.22118 373.43499,555.56689 372.26019,557.33837 C 371.70745,558.17236 371.05023,558.84228 370.05023,558.84228 z M 360.0971,553.25146 C 360.68988,553.21923 362.35492,552.64013 362.44574,553.96728 C 362.48284,554.50634 361.99359,556.09033 361.17913,556.41845 C 360.63616,556.63915 359.84613,556.43408 359.84613,556.43408 C 359.84613,556.43408 358.21624,555.65087 357.47894,555.00829 C 357.25433,554.81298 357.41448,554.38134 357.49456,554.22509 C 357.893,553.4497 359.5014,553.28271 360.0971,553.25146 z M 398.91156,525.31054 C 400.03265,524.32665 404.54632,522.31738 406.55609,525.29003 C 407.55609,526.76904 398.05609,526.06054 398.91156,525.31054 z M 414.86859,520.12304 C 414.9096,519.29003 421.91156,518.45654 421.74359,519.31054 C 421.5932,520.07714 419.49163,521.13329 417.86859,521.31054 C 415.76507,521.54003 414.82757,520.92089 414.86859,520.12304 z M 393.30413,586.26513 C 389.75335,586.23876 383.47406,585.08154 382.16156,584.33154 C 382.14398,583.94189 382.08148,583.80126 382.34906,583.28564 C 383.49945,582.79052 389.27288,582.53173 391.00335,582.45654 C 393.19085,582.36376 393.86859,583.11181 395.91156,583.67626 C 397.72406,584.17626 400.16156,583.83251 401.72406,583.39404 C 403.44085,583.36376 403.16156,583.30126 403.93304,583.53759 C 406.69085,585.05126 403.01898,585.72704 401.91156,585.89501 C 397.81585,586.36376 397.72406,586.30126 393.30413,586.26513 z M 412.49945,579.6704 C 411.70257,579.30126 409.23382,579.30126 409.04827,578.55517 C 411.09905,577.20556 413.94085,576.22509 416.45648,576.55126 C 417.52874,576.50634 420.65179,579.30126 416.5971,580.37353 C 415.5971,580.37353 413.40765,580.09032 412.49945,579.6704 z M 433.44085,582.11376 C 429.64788,581.67626 424.37835,581.95751 426.09124,580.45263 C 426.41351,580.23876 427.11273,580.56103 428.97796,579.84423 C 431.66741,578.69482 432.92328,577.31493 434.47991,576.77783 C 440.89984,575.42626 452.50335,575.02001 459.81976,577.96044 C 463.37835,580.30126 440.50335,582.92626 433.44085,582.11376 z M 416.31585,571.76904 C 414.41155,570.92626 410.09906,567.67626 409.53656,567.55126 C 409.53656,566.55126 412.8471,567.70751 413.37835,568.23876 C 417.06585,569.61376 421.75335,572.30126 421.03656,572.89404 C 419.2221,573.33251 417.22991,572.17333 416.31585,571.76904 z M 365.22308,583.53564 C 364.22308,583.53564 364.58245,583.81591 362.4389,583.59618 L 362.37933,582.91064 C 363.37933,582.91064 363.14593,582.45556 365.21234,582.72704 L 365.22308,583.53564 z M 377.79388,578.57763 L 382.08734,577.38134 L 385.45843,576.35009 L 388.01507,576.35009 L 388.12445,577.16454 L 383.01312,578.08837 L 378.77093,579.44775 C 378.77093,579.44775 378.06585,579.50244 377.90374,578.63329 M 375.16058,564.16454 C 373.82757,564.83154 374.95257,567.03954 376.45306,566.95751 C 383.88226,566.5454 389.70257,560.33154 389.4096,555.16454 C 389.12835,550.16454 386.12249,552.68017 385.91155,553.66454 C 385.20257,556.95654 381.21624,561.13525 375.16058,564.16454 z "
       id="path1827"
       style="fill:#263d12;fill-opacity:1"
       inkscape:export-xdpi="76.584358"
       inkscape:export-ydpi="76.584358" />
  </g>
</svg>
