<?xml version="1.0" encoding="UTF-8" standalone="no"?>
<!-- Created with Inkscape (http://www.inkscape.org/) -->

<svg
   xmlns:dc="http://purl.org/dc/elements/1.1/"
   xmlns:cc="http://creativecommons.org/ns#"
   xmlns:rdf="http://www.w3.org/1999/02/22-rdf-syntax-ns#"
   xmlns:svg="http://www.w3.org/2000/svg"
   xmlns="http://www.w3.org/2000/svg"
   xmlns:sodipodi="http://sodipodi.sourceforge.net/DTD/sodipodi-0.dtd"
   xmlns:inkscape="http://www.inkscape.org/namespaces/inkscape"
   sodipodi:docname="igel-font.svg"
   inkscape:version="0.48.3.1 r9886"
   sodipodi:version="0.32"
   id="svg1770"
   height="830.21356"
   width="1528.4713"
   version="1.0"
   inkscape:export-filename="/home/pascal/projekte/html5/jan/wp/wp-content/themes/jan1/images/igel.png"
   inkscape:export-xdpi="76.584358"
   inkscape:export-ydpi="76.584358">
  <defs
     id="defs3" />
  <sodipodi:namedview
     inkscape:window-y="66"
     inkscape:window-x="472"
     inkscape:window-height="852"
     inkscape:window-width="1342"
     inkscape:current-layer="layer1"
     inkscape:document-units="px"
     inkscape:cy="379.00923"
     inkscape:cx="851.35656"
     inkscape:zoom="0.60454538"
     inkscape:pageshadow="2"
     inkscape:pageopacity="0.88627451"
     borderopacity="1.0"
     bordercolor="#666666"
     pagecolor="#b2cdc4"
     id="base"
     showgrid="false"
     inkscape:window-maximized="0"
     fit-margin-top="0"
     fit-margin-left="0"
     fit-margin-right="0"
     fit-margin-bottom="0" />
  <metadata
     id="metadata4">
    <rdf:RDF>
      <cc:Work
         rdf:about="">
        <dc:format>image/svg+xml</dc:format>
        <dc:type
           rdf:resource="http://purl.org/dc/dcmitype/StillImage" />
        <dc:title></dc:title>
      </cc:Work>
    </rdf:RDF>
  </metadata>
  <g
     id="layer1"
     inkscape:groupmode="layer"
     inkscape:label="Layer 1"
     transform="translate(-266.88391,369.23408)">
    <path
       style="fill:#ffffff;stroke:none;stroke-width:1px;stroke-linecap:butt;stroke-linejoin:miter;stroke-opacity:1;fill-opacity:1"
       d="m 107.51881,299.23605 51.2782,148.8722 107.51881,-14.88722 49.62407,-62.85715 c -11.41841,0 207.71496,-162.10529 340.75192,-160.45115 122.40775,1.52198 238.19552,76.09023 244.81207,160.45115 99.24822,24.81203 251.42852,132.33084 115.78952,272.93236 86.015,52.93234 129.0225,66.16543 129.0225,66.16543 124.0602,-23.1579 248.1204,-6.61655 246.4662,31.42857 -1.6541,38.04512 -143.9097,56.24061 -272.9323,43.00753 -47.9699,-14.88722 -84.3609,-23.1579 -122.40606,4.9624 -44.66166,23.1579 -130.67671,33.08271 -206.76695,3.30827 -81.05264,14.88722 -173.68423,9.92482 -160.45114,-11.57894 13.23308,-21.50377 31.42857,-39.69926 31.42857,-39.69926 L 459.84968,649.91279 c 0,0 -167.06769,66.16542 -233.23311,24.81203 -66.16542,-41.35339 -87.66918,-62.85715 -97.594,-115.78949 C 119.09776,506.00299 24.812033,357.13079 24.812033,357.13079 z"
       id="path3048"
       inkscape:connector-curvature="0"
       transform="translate(266.88391,-369.23408)"
       sodipodi:nodetypes="ccccscccscccsccsscc" />
    <path
       d="m 1131.5404,-191.03347 c 0.6899,4.16251 -15.159,6.86154 -16.6638,2.54033 -1.2908,-3.63103 16.2773,-4.87009 16.6638,-2.54033 z M 866.95578,-200.639 c -3.12703,4.30057 -3.38935,6.64757 -10.16805,7.29994 2.65074,-20.32239 17.48524,-33.41737 24.5539,-47.55469 17.67165,-24.29851 36.22687,-43.73732 50.36422,-64.9433 15.90442,-15.0209 33.57609,-29.15822 53.89854,-39.7612 3.71379,-3.00277 9.71933,-12.37016 -1.76724,-15.02091 -7.06864,-7.06865 -28.27462,12.37016 -25.62384,7.06866 -70.6866,49.48062 -118.40005,110.4478 -165.22991,187.31947 -10.603,17.67164 -23.85673,30.92538 -42.41196,42.41195 -68.91942,33.576128 -136.95526,65.385093 -193.50453,121.9343637 -7.71757,17.3816913 -0.0212,17.3816913 -0.92501,21.0023283 -5.88133,5.432689 -18.4034,-3.42731 -30.77355,4.524932 -9.95408,6.789093 -9.82982,28.367798 -29.26863,29.251385 -21.20597,0 -56.54927,10.606451 -60.51161,-15.614526 0,-49.480615 -6.46117,-114.213413 -59.65559,-139.892503 -113.81644,-3.41007 -117.33698,140.196243 -103.19966,225.02354 4.99089,12.83266 7.54494,24.78173 18.37575,36.51683 0,7.06866 19.3629,24.28474 33.50022,31.34646 7.58636,5.336 17.43004,5.75022 29.09608,2.16754 11.05171,-3.41006 18.97631,-6.01246 25.85857,4.31436 2.99591,47.89292 40.98996,87.65412 102.84072,122.99056 64.9433,28.72328 164.34631,19.00387 221.92415,-14.13046 8.53901,-1.48414 20.32239,-5.01847 32.98936,6.76492 7.35861,3.83806 23.85672,9.13957 45.64947,20.02558 38.29085,14.73787 98.9543,33.6659 112.72574,39.38155 15.74572,5.77092 0,7.86939 -16.80185,14.17874 -7.90389,2.61625 -30.96681,18.36197 -43.56478,22.04813 -202.63025,8.39404 -174.81119,-16.80184 -269.68588,-4.76992 0,0 -25.16139,17.30577 15.72501,17.22985 59.20002,-4.41105 127.67765,19.00388 154.62691,20.76419 59.64181,-0.43472 106.47168,-5.73643 162.13736,5.74328 49.03881,1.77402 91.89255,7.07552 130.32841,-4.41105 6.185,-1.33223 17.2333,-2.21582 24.7472,1.32537 43.2817,12.81194 117.0747,21.64091 173.6239,14.57911 30.4837,-10.16805 66.5586,-3.25131 79.5225,-39.76121 1.8638,-2.87164 7.1653,-3.97612 8.394,1.76031 0,7.07551 -4.8735,10.60299 2.2089,17.6785 15.9046,18.55523 96.7523,-0.88358 120.1534,3.08569 16.3601,-1.32538 102.5094,1.33223 119.7393,4.86655 65.813,8.39403 157.2638,-12.377 224.4299,-3.53432 17.6578,0 18.5552,-14.57912 3.5343,-18.1203 -81.3034,-14.13046 -157.2776,-2.65075 -143.1403,-12.3633 17.6716,-10.16805 28.2746,-11.49343 35.3294,-25.62388 15.9045,-36.23374 -39.3056,-52.57315 -71.5702,-63.17615 -56.0935,-15.02089 -112.6567,-15.90447 -169.1921,-8.84268 -19.8806,5.75014 -34.0179,5.75014 -44.6209,2.65076 -24.2985,-16.78121 -44.6348,-26.94241 -71.1423,-37.98719 -7.0548,0 -3.9761,-3.09939 -3.9761,-10.1612 28.7303,-27.39791 31.381,-63.61793 59.6418,-62.29255 30.4836,2.65074 38.4358,0.43472 73.0474,7.0618 20.9161,7.35854 78.0452,24.44342 88.0683,31.51208 8.2423,4.12109 24.4366,-1.76717 12.3702,-16.20129 -15.6145,-20.3224 -40.0511,-30.92539 -56.2593,-38.88449 -2.347,-4.41106 -1.7672,-6.47503 3.2443,-5.88141 8.8359,-0.29688 43.0057,14.13732 46.5262,1.17354 3.2445,-8.83582 -6.4749,-9.42259 -5.8814,-14.42727 10.0094,-2.65074 21.206,4.70787 24.1468,-8.24905 -3.5344,-18.55523 -43.8755,-27.68787 -51.2479,-30.33862 -36.2269,-15.02089 -98.0776,-10.89294 -123.1078,-13.54369 -9.1259,-0.29688 -7.6623,-9.42945 -1.1736,-11.19661 42.7019,-0.28982 89.8218,-5.88826 158.8101,14.35129 16.1392,1.32537 24.0915,-12.81195 4.6527,-19.65279 -23.6497,-11.486572 -34.4597,-14.806929 -49.7153,-20.108421 -32.6926,-8.387107 -63.618,-13.909501 -81.0687,-14.351286 -2.4299,-0.938787 -6.8477,-1.553199 -5.5224,-4.638814 16.3462,-5.301492 24.7403,-6.626865 45.9462,-6.626865 26.3005,-10.382092 6.6822,-21.972218 -8.6149,-24.298513 -27.6119,-4.197016 -40.6309,-2.650747 -66.2686,-3.53433 -2.5541,-0.08977 -5.5225,-1.767164 -3.0788,-4.859703 27.1563,-10.602989 40.1892,-13.695527 69.3474,-11.48657 16.8019,-10.8238848 6.406,-20.3223945 -0.2205,-22.3104549 -15.9045,-3.0925381 -21.8549,-6.8477641 -32.6926,-8.1731371 -9.7194,0.883582 -7.2757,-1.98806 -7.0686,-5.743286 37.7869,-30.925382 110.006,-46.167178 125.5792,-51.579084 0,0 20.3224,-14.468697 -4.9702,-20.432878 -28.8131,-0.220541 -89.1313,16.677653 -111.3313,23.414933 -60.7463,-19.438812 -91.23,-9.056719 -116.1912,-12.591048 -1.2149,0 -5.3014,-1.546269 -1.0906,-4.859704 19.3836,-15.307389 82.822,-8.614928 89.4489,-21.647769 6.1574,-12.1113 -13.1432,-13.03284 -7.7314,-22.67972 12.2873,-4.097 32.7063,-3.82774 52.7251,-3.82774 23.8567,-15.31426 3.5343,-16.78808 -5.0116,-27.68441 -16.7743,-40.05802 -106.8997,-4.71473 -144.3139,5.59484 -18.5552,4.71133 -35.3432,13.54716 -56.8392,18.55523 -19.7287,2.65075 -41.8183,13.25374 -59.4899,5.00815 26.0243,-2.09162 49.5634,-9.68838 68.9194,-23.85673 15.0209,-14.43413 25.9138,-31.51561 47.4097,-41.82518 24.7403,-11.18975 66.5724,-14.13732 94.2534,-10.89641 12.0802,0.59023 10.8929,-15.31425 -1.4772,-18.84858 -14.1374,-5.5983 -25.334,-7.06865 -43.2956,-10.01622 -53.015,-9.42259 -105.4362,35.93346 -152.8598,8.54241 -3.5343,-1.17693 -8.2421,-4.41792 -4.1279,-9.71941 14.1511,-14.13732 24.7541,-18.26181 43.972,-28.72674 24.3676,-13.97856 68.2567,-17.21954 95.5926,-13.71624 8.2422,-0.84563 10.1336,-14.98295 1.5187,-17.93397 -42.4119,-17.3783 -107.4934,-6.77531 -146.3848,24.15008 -6.4749,1.17699 -14.4272,10.01282 -21.2059,14.13731 -15.0072,6.18508 -14.4273,12.07681 -30.6217,10.01283 -5.0116,-3.53433 -2.9407,-3.82775 -2.0572,-6.77185 25.624,-28.27463 51.5378,-40.35144 86.7154,-56.53895 12.2321,-4.13488 29.6139,-5.01846 30.4974,-16.79838 -3.2307,-10.89988 -7.0686,-10.01629 -13.8336,-10.30964 -28.2885,0 -89.2556,30.33514 -95.7306,37.11045 -28.2746,22.38298 -50.3641,37.40388 -73.0474,64.79494 -19.4319,15.90448 -29.4481,18.85204 -55.3619,25.03711 -8.24915,-1.76715 0.5866,1.76717 -8.8359,-1.18039 -0.29688,-4.71133 3.03039,-8.09036 5.30147,-12.07334 21.20603,-33.87294 58.31653,-65.09175 95.42693,-90.71563 17.3817,-17.08142 45.9463,-15.31425 52.725,-32.25076 1.2012,-4.19701 -7.4137,-10.82388 -12.3839,-9.27761 -21.206,7.06866 -49.4669,12.37015 -71.9983,26.94926 -16.3496,6.18507 -31.374,19.43881 -51.6963,32.69254 -28.27473,28.27464 -48.89388,52.57315 -77.1685,87.91645 -5.8883,3.53433 -7.33101,8.08683 -14.13735,6.18508 -6.33007,-1.76717 -3.67929,-3.53433 0,-10.01275 32.54758,-45.65294 60.38043,-80.99624 108.53565,-109.71266 9.9403,-4.19702 15.4662,-9.71941 20.3189,-11.04479 6.1955,-4.19701 12.6981,-5.2566 18.3309,-8.39403 7.3034,-2.87164 9.0706,-17.67164 -5.0806,-19.6597 -84.15432,19.21792 -150.00878,90.83983 -192.42076,168.59508 z m -521.75539,183.985382 4.67338,-7.403502 6.24028,-0.196509 2.91992,3.120177 6.82712,8.963484 6.62688,16.7638902 -0.20005,16.7604968 -2.72666,6.626868 -4.68023,4.873486 -7.60015,-0.196508 -6.0401,-5.65012 -4.68023,-6.823589 -3.70002,-12.4737085 -0.19297,-11.303634 0.78003,-7.7969435 1.7533,-5.263464 z m 467.22182,-99.803452 c 28.56459,-8.83583 55.07206,-16.78807 89.24177,-17.08142 6.77876,4.71126 -7.65538,10.60299 -7.65538,24.74031 6.47503,38.877622 69.80297,-25.91724 55.36892,27.097703 14.72401,29.451567 33.87288,6.771775 48.01023,-0.296884 15.60765,-10.896338 44.47255,-26.210589 48.30365,-16.788065 6.7684,15.317783 -16.2048,11.193221 -3.2444,33.873013 4.1625,7.2757 33.2896,2.060514 45.0662,-10.016289 7.0686,-2.353864 15.3108,-4.121028 9.7194,7.365542 -6.1851,11.77992 -6.1851,11.77992 -14.1374,15.31425 -27.1011,10.309639 -52.1314,14.72755 -67.449,43.5888843 -2.354,7.3655425 -7.0687,20.3223937 8.8358,28.8648687 11.4865,0.883583 28.2677,-7.952241 37.6972,-13.2537352 16.788,-6.77530943 36.2269,8.5424742 50.0743,11.7799192 25.9138,3.53433 52.725,-15.3142486 52.4212,0.296884 16.4982,24.740303 42.7158,5.301495 45.9463,15.0209 -1.1735,5.301499 -2.0571,2.9441 -7.6485,4.711259 -19.1489,5.891732 -32.1127,21.502791 -35.3433,42.411953 6.7649,25.037127 37.6903,21.799607 41.5145,50.364197 15.6147,19.14885 47.4236,2.36079 60.3874,7.95224 -0.2898,3.83114 -5.5914,11.19661 -24.7403,25.62389 -7.9523,2.65075 -24.4504,7.95224 -25.9137,22.68319 1.5323,17.67164 56.5354,11.18975 83.9403,17.0918 5.1771,1.32537 5.5085,2.2021 3.8242,5.30149 -12.0113,12.59105 -18.4033,3.31344 -25.4721,17.45076 -3.3272,5.74328 -5.5362,13.03284 -5.9779,17.67164 -1.3254,5.0806 -22.7384,8.61493 -24.7403,29.60001 -2.8717,3.09254 -8.7116,-1.6429 -12.1493,-3.53432 -38.4358,-22.53136 -53.8847,-8.39404 -73.3235,9.27761 -3.7691,16.34627 25.8309,8.39403 87.6817,42.85375 18.5276,10.3131 6.8478,13.25373 4.4179,15.68358 -18.997,11.70746 -54.1056,20.54329 -75.1045,9.27761 -78.8597,-51.10973 -130.3973,-2.80951 -156.3112,6.9099 -25.0371,7.06866 -56.84614,12.08027 -140.78644,-17.07795 -15.46269,-5.73643 -92.77615,-39.31256 -106.02988,-49.91555 -15.0209,-11.05163 -20.76418,-10.1612 -6.62687,-22.08955 15.0209,-8.39403 46.38808,-45.95315 101.17018,-20.3224 23.41493,20.75733 94.54333,34.45972 159.48661,17.67165 0,0 52.58,-16.79493 28.2816,-64.9433 -21.2094,-28.28843 -62.29948,-34.4735 -86.15625,-39.3332 -86.59106,-8.39404 -166.55526,37.56603 -238.56722,84.3959 -53.01495,30.48359 -108.68063,41.08657 -141.37318,47.71344 -52.13136,6.62687 -98.96123,-2.21581 -138.49461,-27.08731 -55.45172,-36.53062 -32.47858,-158.47877 -14.82764,-154.9168 3.94848,1.22867 11.94907,34.64604 5.19108,61.51938 -8.48381,32.56829 10.29232,34.11455 17.36098,34.11455 41.08658,-3.53432 9.9403,-66.94514 16.12538,-95.44067 0.86286,-3.98991 2.76115,-4.97011 6.62686,-4.19702 5.74329,5.74329 12.59106,15.46269 19.88061,28.9304 9.7194,19.00395 6.62686,32.47858 14.8,49.70843 3.53433,7.06866 20.98509,15.02783 28.05375,-3.32036 1.98806,-14.35129 0.44178,-23.85672 -6.62688,-38.20801 -7.95224,-18.11344 -18.77612,-29.15822 -18.99701,-51.468671 1.98806,-4.970114 2.09846,-4.424837 6.62686,-2.429853 10.38209,29.013234 35.70917,44.620904 48.96291,78.493844 22.38637,40.36177 65.6819,49.19074 108.97744,41.2385 14.72408,-3.52748 54.78211,-13.55063 54.18848,-37.1174 -5.00468,-7.65542 -22.97314,-2.05711 -27.68101,1.76717 -7.06866,4.12795 -73.04738,12.37015 -76.87167,1.76717 10.30618,-4.41792 55.36888,4.41791 100.72839,-16.19444 10.30618,-2.94756 83.05674,-32.4026 106.31985,-62.444391 3.53432,-4.707872 2.65074,-24.146682 -20.90917,-10.892952 -9.4226,11.776531 -87.17784,44.179123 -122.52114,51.247783 -8.24905,1.17353 -15.90448,1.17353 -10.31302,-7.66228 39.02945,-37.552258 50.51602,-78.200511 38.58766,-136.5134813 0,-9.2776147 26.06568,-37.1104587 37.55225,-46.3880737 10.60299,-14.579109 -1.76717,-24.298515 -15.90448,-18.113438 -25.1821,21.205976 -71.12839,49.038821 -86.14928,61.408974 -15.0209,12.3701522 -72.01197,39.761205 -79.08062,39.761205 0,0 -22.97315,1.767165 -7.95224,-7.068659 26.94926,-21.4993959 73.77912,-59.493437 92.33435,-68.919423 11.77653,-9.426057 59.48998,-35.049945 86.59107,-48.30368 8.83583,-2.650748 39.16758,-17.374764 54.78211,-21.205974 z M 682.85313,18.665501 c 0,0 16.76049,-6.637259 13.57126,17.650936 -3.61718,27.605023 -20.81247,55.665691 -46.15332,68.781373 -23.98793,12.42536 -59.73852,4.52832 -76.47823,-18.099654 -2.65075,-3.582678 -4.52832,-4.521465 -1.35987,-9.042938 4.05203,-5.798486 22.1724,14.02691 50.233,1.808585 9.36046,-4.072746 23.98099,-21.274965 25.34086,-36.209626 0.87672,-9.636559 23.98099,-23.984382 34.8463,-24.888676 z M 996.13144,233.05157 c -14.13736,0 -24.29854,-4.6526 -18.18252,-18.39647 2.66453,-5.97112 7.0963,-10.63063 13.85431,-8.63564 2.10536,1.43578 28.25387,3.87949 19.94967,16.40148 -3.9072,5.89519 -8.5528,10.63063 -15.62146,10.63063 z m -70.35531,-39.5196 c 4.19014,-0.22761 15.95975,-4.32129 16.60174,5.05988 0.2623,3.81044 -3.19612,15.00712 -8.95319,17.32649 -3.83811,1.56005 -9.42254,0.11027 -9.42254,0.11027 0,0 -11.52115,-5.53625 -16.73289,-10.07843 -1.58768,-1.38058 -0.45595,-4.43169 0.11031,-5.53617 2.81642,-5.48097 14.18568,-6.66136 18.39648,-6.88226 z M 1200.1423,-3.9728686 c 7.9246,-6.9547824 39.8302,-21.1576274 54.0366,-0.1449077 7.0686,10.4546175 -60.0836,5.4464723 -54.0366,0.1449077 z m 112.7948,-36.6686674 c 0.2898,-5.888264 49.7844,-11.77992 48.597,-5.743286 -1.063,5.418834 -15.9183,12.884398 -27.391,14.137319 -14.869,1.622185 -21.4959,-2.754303 -21.206,-8.394033 z M 1160.5053,426.89434 c -25.0992,-0.18662 -69.4854,-8.3664 -78.763,-13.6679 -0.1244,-2.75429 -0.5662,-3.74836 1.3254,-7.3931 8.1317,-3.49984 48.942,-5.32914 61.1742,-5.86063 15.4626,-0.65597 20.2534,4.63188 34.6944,8.62178 12.812,3.53434 30.0419,1.10448 41.0866,-1.99491 12.1354,-0.21419 10.1613,-0.65597 15.6145,1.01471 19.494,10.69961 -6.4611,15.47647 -14.2891,16.6638 -28.9512,3.31343 -29.6,2.87163 -60.843,2.61625 z m 135.6852,-46.6159 c -5.6329,-2.60933 -23.0836,-2.60933 -24.3953,-7.88318 14.4963,-9.53993 34.5841,-16.47055 52.3661,-14.16496 7.5795,-0.31738 29.6553,19.43881 0.9941,27.01832 -7.0687,0 -22.5452,-2.00191 -28.9649,-4.97018 z m 148.0275,17.27128 c -26.8111,-3.09254 -64.0596,-1.10448 -51.9518,-11.74196 2.278,-1.51178 7.2206,0.76624 20.4052,-4.30057 19.0108,-8.12479 27.8882,-17.87877 38.8914,-21.67534 45.3804,-9.55379 127.4016,-12.42543 179.1188,8.35946 25.1544,16.54646 -136.5411,35.10169 -186.4636,29.35841 z m -121.0507,-73.1233 c -13.4608,-5.95733 -43.9444,-28.93047 -47.9205,-29.81405 0,-7.06866 23.4011,1.10448 27.1563,4.85971 26.0657,9.7194 59.2,28.71642 54.1333,32.90658 -12.8258,3.0994 -26.9079,-5.09445 -33.3691,-7.95224 z M 962.00992,407.6005 c -7.06863,0 -4.52834,1.98113 -19.68037,0.42766 l -0.42128,-4.84585 c 7.06863,0 5.41879,-3.21681 20.02557,-1.29781 l 0.0752,5.71572 z m 88.85868,-35.04648 30.3491,-8.45617 23.8291,-7.28955 18.0719,0 0.7732,5.75707 -36.1303,6.53024 -29.9865,9.60899 c 0,0 -4.984,0.38666 -6.1299,-5.75714 M 1032.2547,270.6728 c -9.4226,4.7148 -1.4703,20.3224 9.1362,19.74255 52.5144,-2.91306 93.6562,-46.83671 91.5853,-83.36048 -1.9881,-35.34329 -23.2354,-17.56116 -24.7265,-10.60298 -5.0116,23.27002 -33.1895,52.80789 -75.995,74.22091 z"
       id="path1827"
       style="fill:#263d12;fill-opacity:1"
       inkscape:export-xdpi="76.584358"
       inkscape:export-ydpi="76.584358"
       inkscape:connector-curvature="0" />
  </g>
</svg>
