<?xml version="1.0" encoding="UTF-8" standalone="no"?>
<!-- Created with Inkscape (http://www.inkscape.org/) -->

<svg
   xmlns:dc="http://purl.org/dc/elements/1.1/"
   xmlns:cc="http://creativecommons.org/ns#"
   xmlns:rdf="http://www.w3.org/1999/02/22-rdf-syntax-ns#"
   xmlns:svg="http://www.w3.org/2000/svg"
   xmlns="http://www.w3.org/2000/svg"
   xmlns:sodipodi="http://sodipodi.sourceforge.net/DTD/sodipodi-0.dtd"
   xmlns:inkscape="http://www.inkscape.org/namespaces/inkscape"
   id="svg3004"
   version="1.1"
   inkscape:version="0.48.2 r9819"
   width="114.49494"
   height="120.02959"
   xml:space="preserve"
   sodipodi:docname="logo-blume.svg"
   inkscape:export-filename="/home/pascal/projekte/html5/jan/wp/wp-content/themes/jan1/images/logo-blume.png"
   inkscape:export-xdpi="104.97412"
   inkscape:export-ydpi="104.97412"><metadata
     id="metadata3010"><rdf:RDF><cc:Work
         rdf:about=""><dc:format>image/svg+xml</dc:format><dc:type
           rdf:resource="http://purl.org/dc/dcmitype/StillImage" /><dc:title></dc:title></cc:Work></rdf:RDF></metadata><defs
     id="defs3008" /><sodipodi:namedview
     pagecolor="#64a12d"
     bordercolor="#666666"
     borderopacity="1"
     objecttolerance="10"
     gridtolerance="10"
     guidetolerance="10"
     inkscape:pageopacity="0"
     inkscape:pageshadow="2"
     inkscape:window-width="1009"
     inkscape:window-height="706"
     id="namedview3006"
     showgrid="false"
     inkscape:zoom="1.4832632"
     inkscape:cx="39.97318"
     inkscape:cy="58.321526"
     inkscape:window-x="0"
     inkscape:window-y="26"
     inkscape:window-maximized="0"
     inkscape:current-layer="g3012"
     fit-margin-top="5"
     fit-margin-left="5"
     fit-margin-right="5"
     fit-margin-bottom="5" /><g
     id="g3012"
     inkscape:groupmode="layer"
     inkscape:label="ink_ext_XXXXXX"
     transform="matrix(1.25,0,0,-1.25,-121.52407,136.84557)"><path
       inkscape:connector-curvature="0"
       id="path3018"
       style="fill:#fee702;fill-opacity:1;fill-rule:nonzero;stroke:none"
       d="m 184.814,66.9922 c -0.034,0.2273 -0.608,0.4324 -0.99,0.7488 -1.304,1.0871 -5.963,5.6723 -15.131,5.375 -1.16,-0.0367 -2.218,-0.1465 -3.182,-0.3113 1.953,0.634 2.964,1.0129 3.553,1.248 0.709,0.2801 5.389,1.8848 7.907,10.1043 0.215,0.7035 0.822,2.3977 0.672,2.5246 -0.188,0.159 -1.762,-0.1218 -3.352,-1.091 -1.596,-0.9683 -6.955,-1.814 -7.592,-1.9168 -0.373,-0.0593 -1.947,0.1758 -4.299,-1.0593 2.65,2.7214 5.461,6.5906 6.216,12.0171 0.361,2.6047 0.208,3.6664 0.097,3.6594 -0.158,-0.0117 -0.246,-0.0129 -0.44,-0.0715 -0.589,-0.1726 -1.189,-0.6726 -3.137,-1.9754 -1.952,-1.3039 -4.019,-2.748 -4.019,-2.748 0,0 0.707,7.0899 0.487,7.2549 -0.215,0.16 -4.241,0.121 -10.419,-6.7588 0,0 0.702,5.8933 -0.456,8.1168 0,0 -0.323,1.609 -0.575,2.448 -0.125,0.423 -0.455,0.867 -0.509,0.829 -0.065,-0.045 -0.612,-0.135 -1.49,-1.144 -1.362,-1.56 -7.697,-3.469 -8.747,-11.6658 -0.793,3.3066 -2.476,7.7308 -6.635,9.9698 -2.349,2.3 -3.392,2.986 -3.513,2.927 -0.106,-0.055 -0.061,-1.077 -0.417,-3.377 -0.402,-2.5815 -0.76,-3.398 -0.76,-3.398 0,0 -4.358,3.833 -4.47,3.945 -0.205,0.202 -2.862,-8.2114 -2.082,-12.4118 0,0 -1.379,1.0676 -3.888,2.3579 -2.85,1.4629 -7.643,1.7144 -7.61,1.4902 0.058,-0.3781 4.045,-8.1699 5.724,-10.9063 0,0 -10.743,1.8458 -10.554,1.1747 0.061,-0.2215 0.318,-0.6434 0.742,-2.4368 0,0 -4.215,0.0918 -4.16,-0.2578 0.059,-0.3886 3.195,-5.5719 3.436,-5.8551 0,0 -3.262,-0.63 -3.95,-0.6679 -0.466,-0.0246 2.179,-7.3305 9.43,-9.1543 1.029,-0.259 2.022,-0.4485 2.975,-0.5879 0.821,-0.0781 1.828,-0.1762 2.699,-0.2578 4.314,-0.1723 7.148,0.9363 6.658,2.534 0,0 -0.139,0.5918 -4.566,2.207 0,0 0.125,0.5281 0.419,0.5996 0.296,0.0715 4.899,-1.6133 4.572,-1.3445 -0.327,0.2742 -2.011,2.1453 -1.708,2.1297 0.303,-0.0137 2.465,-0.9289 3.182,-0.2559 0.685,0.6426 1.116,1.8242 1.568,2.082 0.451,0.2571 -1.203,1.7879 0.977,1.084 0,0 1.478,0.8301 0.314,2.1856 -1.164,1.3601 -4.855,5.7265 1.167,0.457 1.44,-1.2625 5.043,2.582 4.747,4.6726 0,0 1.44,-1.4507 1.744,-1.6062 0.306,-0.1562 2.321,-0.3953 2.78,0.3027 0.21,0.3203 -0.74,3.2969 -0.129,4.6055 0,0 0.256,0.0227 0.5,-0.2539 0.242,-0.2805 0.269,-3.3848 1.363,-3.9746 0,0 1.228,0.7195 1.435,1.2551 0.211,0.541 -0.334,-3.3536 3.352,-1.6743 0,0 1.794,1.5942 2.309,1.6411 0.511,0.0488 -0.387,-1.8911 0.068,-2.5825 0.455,-0.6914 1.964,-1.1543 2.443,-0.2898 0.483,0.8645 2.782,2.5918 2.96,2.5227 0.181,-0.0715 -1.169,-3.6704 -1.324,-4.0239 -0.224,-0.5113 -0.384,-1.273 -0.384,-1.273 0,0 0.176,-1.0051 1.432,-1.2824 0,0 2.371,1.3835 4.838,3.1828 -0.26,-0.3125 -0.52,-0.634 -0.783,-0.9809 0,0 -3.192,-3.2762 -3.193,-3.7516 0.005,-0.475 1.095,-1.539 1.989,-0.9359 0.893,0.5988 3.055,1.4941 3.243,1.3383 0.185,-0.1566 0.53,-0.5988 0.082,-0.8586 -0.451,-0.2559 -2.964,-1.5703 -2.964,-1.5703 0,0 2.87,-0.1953 6.38,0.5144 -3.8,-1.5418 -5.116,-3.8882 -5.083,-4.1113 0.114,-0.7527 6.017,0.7774 6.178,0.4055 0.848,-1.9239 -1.871,-0.7356 -3.062,-0.9356 -1.19,-0.1965 -4.251,-0.2656 -1.434,-2.6789 0,0 0.522,-0.0398 -0.869,-0.8594 -1.391,-0.8218 3.098,-1.3074 3.631,-1.9042 0.531,-0.5985 -4.452,0.057 -4.355,-1.443 0.097,-1.5024 -0.856,-0.5547 2.455,-4.0891 0,0 -1.989,0.4629 -2.221,0.1824 -0.234,-0.282 4.353,-4.0835 4.324,-5.1648 0,0 -0.931,-0.6477 -1.33,-0.0813 -0.396,0.5676 -3.169,3.634 -3.619,3.7239 -0.338,0.0676 -0.985,-0.0899 -1.285,-0.6848 0,0 1.212,-2.8223 0.833,-2.9019 -0.381,-0.0793 -2.275,1.2566 -2.275,1.2566 0,0 -1.244,-0.5488 -0.836,-1.6758 0.407,-1.125 3.786,-4.9558 3.592,-5.1914 0,0 -0.287,-0.6308 -0.722,-0.5859 -0.436,0.0476 -2.774,4.2761 -3.35,4.4386 -0.577,0.1622 0.672,-3.9511 0.672,-3.9511 0,0 -2.11,2.2195 -2.671,2.6836 -0.56,0.4644 -0.644,-0.4914 -0.644,-0.4914 l 0.611,-4.6934 c 0,0 -6.568,9.793 -4.962,-1.8848 0,0 -0.153,-0.6621 -0.369,-0.6394 -0.218,0.0215 -1.614,3.864 -1.453,4.914 0.162,1.0504 -1.153,-2.9101 -1.153,-2.9101 0,0 -2.06,8.1805 -6.326,-0.2063 0,0 -0.297,3.1692 -0.953,3.711 -0.652,0.5429 -1.171,0.7336 -1.361,0.7383 -0.139,7e-4 -1.003,0.0339 -1.778,-1.4297 -3.006,-3.8992 -4.935,-8.9153 -5.478,-13.2532 -0.095,-3.0132 0.246,-8.4421 0.068,-9.6062 -0.105,-0.6809 0.051,-0.7539 0.157,-0.9785 0.034,-0.0703 1.158,0.8574 1.515,1.0945 0.529,0.352 6.014,7.7277 6.359,9.5727 0,0 2.926,-12.8508 3.918,-14.2278 0.216,-0.2968 0.395,-0.6289 0.541,-0.3972 0.293,0.4578 0.731,1.6582 1.059,1.7578 0.421,0.1258 1.658,0.2808 2.307,2.114 0.65,1.8332 1.82,3.6231 2.368,8.3789 0,0 6.217,-7.9289 7.026,-8.6652 0.322,-0.2945 2.01,2.5156 2.754,7.0317 0.746,4.5164 -0.857,10.5835 -1.871,10.791 0,0 -0.422,0.666 0.757,0.2437 0.669,-0.241 3.257,-4.732 9.225,-8.1414 1.004,-0.5754 3.14,-0.5848 3.153,-0.5461 0.48,1.3391 -4.203,13.5957 -4.203,13.5957 0,0 0.115,0.1399 1.058,-0.2468 0.942,-0.3868 9.885,-6.17 15.311,-3.4598 1.1,0.5484 1.164,0.6656 1.164,0.6656 0.621,2.6699 -4.158,7.7219 -7.092,10.018 0,0 7.707,0.3125 8.889,2.3554 0,0 1.42,0.5125 2.154,1.5235 0.127,0.1785 -0.83,1.9363 -1.941,2.709 -2.911,2.0183 -3.541,2.7781 -3.541,2.7781 0,0 0.814,0.9836 1.99,1.3516 1.174,0.3679 4.972,2.7121 3.958,3.8671 0,0 1.223,1.0618 1.178,1.3399" /></g></svg>