<?xml version="1.0" encoding="UTF-8" standalone="no"?>
<!-- Created with Inkscape (http://www.inkscape.org/) -->

<svg
   xmlns:dc="http://purl.org/dc/elements/1.1/"
   xmlns:cc="http://creativecommons.org/ns#"
   xmlns:rdf="http://www.w3.org/1999/02/22-rdf-syntax-ns#"
   xmlns:svg="http://www.w3.org/2000/svg"
   xmlns="http://www.w3.org/2000/svg"
   xmlns:sodipodi="http://sodipodi.sourceforge.net/DTD/sodipodi-0.dtd"
   xmlns:inkscape="http://www.inkscape.org/namespaces/inkscape"
   id="svg3004"
   version="1.1"
   inkscape:version="0.48.2 r9819"
   width="730"
   height="830"
   xml:space="preserve"
   sodipodi:docname="sonnenblume-flat.svg"
   inkscape:export-filename="/home/pascal/projekte/html5/jan/wp/wp-content/themes/jan1/images/sonnenblume-flat.png"
   inkscape:export-xdpi="4.9299998"
   inkscape:export-ydpi="4.9299998"><metadata
     id="metadata3010"><rdf:RDF><cc:Work
         rdf:about=""><dc:format>image/svg+xml</dc:format><dc:type
           rdf:resource="http://purl.org/dc/dcmitype/StillImage" /><dc:title></dc:title></cc:Work></rdf:RDF></metadata><defs
     id="defs3008" /><sodipodi:namedview
     pagecolor="#64a12d"
     bordercolor="#666666"
     borderopacity="1"
     objecttolerance="10"
     gridtolerance="10"
     guidetolerance="10"
     inkscape:pageopacity="1"
     inkscape:pageshadow="2"
     inkscape:window-width="1217"
     inkscape:window-height="879"
     id="namedview3006"
     showgrid="false"
     inkscape:zoom="0.41326846"
     inkscape:cx="360.34856"
     inkscape:cy="333.31844"
     inkscape:window-x="42"
     inkscape:window-y="53"
     inkscape:window-maximized="0"
     inkscape:current-layer="g3012" /><g
     id="g3012"
     inkscape:groupmode="layer"
     inkscape:label="ink_ext_XXXXXX"
     transform="matrix(1.25,0,0,-1.25,0,830.00001)"><path
       inkscape:connector-curvature="0"
       id="path3018"
       style="fill:#5e982c;fill-opacity:1;fill-rule:nonzero;stroke:none;opacity:0.70153846"
       d="m 547.637,318.326 c -0.206,1.331 -3.561,2.529 -5.804,4.383 -7.632,6.364 -34.902,33.199 -88.571,31.461 -6.793,-0.216 -12.989,-0.859 -18.627,-1.817 11.43,3.705 17.347,5.927 20.793,7.295 4.157,1.655 31.55,11.043 46.288,59.161 1.258,4.106 4.816,14.026 3.925,14.779 -1.089,0.925 -10.302,-0.724 -19.612,-6.385 -9.338,-5.68 -40.714,-10.633 -44.437,-11.228 -2.19,-0.351 -11.403,1.033 -25.165,-6.195 15.51,15.926 31.962,38.56 36.383,70.348 2.109,15.241 1.217,21.452 0.56,21.413 -0.915,-0.068 -1.436,-0.076 -2.569,-0.41 -3.457,-1.025 -6.958,-3.937 -18.369,-11.574 -11.423,-7.632 -23.523,-16.088 -23.523,-16.088 0,0 4.146,41.499 2.856,42.469 -1.263,0.937 -24.827,0.714 -60.994,-39.565 0,0 4.109,34.501 -2.675,47.515 0,0 -1.88,9.418 -3.357,14.341 -0.737,2.462 -2.666,5.064 -2.984,4.84 -0.379,-0.26 -3.578,-0.793 -8.716,-6.686 -7.978,-9.137 -45.063,-20.322 -51.202,-68.303 -4.647,19.363 -14.508,45.256 -38.847,58.373 -13.741,13.456 -19.857,17.475 -20.562,17.129 -0.617,-0.314 -0.351,-6.299 -2.441,-19.773 -2.347,-15.104 -4.453,-19.883 -4.453,-19.883 0,0 -25.503,22.432 -26.165,23.09 -1.198,1.18 -16.747,-48.069 -12.183,-72.658 0,0 -8.075,6.258 -22.761,13.797 -16.679,8.569 -44.736,10.051 -44.538,8.73 0.335,-2.222 23.675,-47.825 33.5,-63.842 0,0 -62.8819,10.806 -61.785,6.873 0.3648,-1.293 1.8671,-3.763 4.35,-14.259 0,0 -24.679,0.539 -24.3563,-1.506 0.3508,-2.284 18.709,-32.621 20.1191,-34.275 0,0 -19.0949,-3.691 -23.1257,-3.91 -2.7313,-0.153 12.7539,-42.91 55.2039,-53.587 6.415,-1.614 12.623,-2.812 18.538,-3.638 -13.915,0.264 -29.306,-2.64 -46.9904,-9.195 0,0 -10.2429,-3.985 -15.6543,-8.273 -5.4183,-4.306 -32.3601,-8.835 -33.6875,-12.76 0.6297,-2.889 32.9117,-24.975 32.9117,-24.975 0,0 -18.9089,-9.237 -20.2097,-10.971 -0.891,-1.21 -1.6113,-2.287 -1.3754,-2.626 0.2234,-0.326 1.4984,-1.835 4.773,-3.876 7.5633,-4.695 74.8806,-11.73 79.0266,-10.068 4.139,1.646 -36.5691,-44.102 -37.1969,-67.154 0,0 6.6659,-0.48 10.4329,-0.79 2.886,-0.23 -12.2715,-28.836 -9.5251,-28.719 18.2891,0.77 48.6301,18.466 54.3211,22.543 5.689,4.058 13.47,10.096 15.551,12.06 2.104,1.97 -13.274,-25.511 -6.98,-49.684 0,0 1.999,-18.7557 2.108,-22.5479 0.095,-3.7699 5.431,-3.7871 5.38,-6.3082 -0.05,-3.0899 14.827,11.7461 21.878,17.4571 7.051,5.695 16.631,16.703 21.265,23.972 4.626,7.243 0.504,-56.8209 -1.38,-69.1389 -0.613,-3.9891 0.295,-4.4039 0.928,-5.7269 0.19,-0.4082 6.772,5.0128 8.858,6.4007 3.106,2.0653 35.212,45.2401 37.237,56.0421 0,0 17.118,-75.226 22.926,-83.2811 1.259,-1.7418 2.308,-3.6949 3.178,-2.3348 1.707,2.682 4.26,9.7121 6.188,10.293 2.473,0.7429 9.705,1.6539 13.505,12.375 3.807,10.725 10.651,21.2011 13.863,49.0469 0,0 36.398,-46.409 41.129,-50.729 1.876,-1.7179 11.77,14.734 16.118,41.1629 4.372,26.4391 -5.018,61.9541 -10.951,63.1721 0,0 -2.477,3.9 4.421,1.432 3.925,-1.417 19.078,-27.702 54.013,-47.669 5.877,-3.355 18.38,-3.416 18.453,-3.194 2.811,7.846 -24.609,79.582 -24.609,79.582 0,0 0.682,0.822 6.204,-1.436 5.509,-2.267 57.865,-36.124 89.624,-20.252 6.442,3.211 6.813,3.887 6.813,3.887 3.639,15.643 -24.335,45.212 -41.513,58.64 0,0 45.115,1.834 52.032,13.795 0,0 8.318,2.996 12.609,8.925 0.747,1.037 -4.857,11.335 -11.362,15.852 -17.038,11.81 -20.728,16.264 -20.728,16.264 0,0 4.759,5.752 11.64,7.913 6.878,2.158 29.123,15.868 23.177,22.628 0,0 7.159,6.224 6.905,7.851 m -145.977,0.889 c -6.97,-1.145 -24.879,-1.552 -8.386,-15.684 0,0 3.05,-0.225 -5.093,-5.026 -8.145,-4.808 18.146,-7.666 21.257,-11.142 3.109,-3.509 -26.057,0.322 -25.489,-8.454 0.562,-8.792 -5.009,-3.244 14.364,-23.927 0,0 -11.64,2.703 -12.992,1.069 -1.372,-1.658 25.483,-23.911 25.314,-30.243 0,0 -5.461,-3.788 -7.792,-0.48 -2.323,3.332 -18.555,21.281 -21.181,21.805 -1.98,0.387 -5.772,-0.524 -7.526,-4.009 0,0 7.094,-16.53 4.877,-16.986 -2.232,-0.456 -13.323,7.346 -13.323,7.346 0,0 -7.276,-3.203 -4.88,-9.793 2.367,-6.6 22.147,-29.026 21.017,-30.398 0,0 -1.681,-3.686 -4.235,-3.428 -2.544,0.274 -16.23,25.032 -19.603,25.98 -3.375,0.947 3.93,-23.132 3.93,-23.132 0,0 -12.339,12.995 -15.631,15.71 -3.278,2.723 -3.767,-2.876 -3.767,-2.876 l 3.574,-27.476 c 0,0 -38.451,57.324 -29.045,-11.032 0,0 -0.888,-3.872 -2.158,-3.747 -1.28,0.137 -9.451,22.628 -8.515,28.771 0.956,6.16 -6.739,-17.046 -6.739,-17.046 0,0 -12.057,47.898 -37.029,-1.188 0,0 -1.742,18.542 -5.586,21.723 -3.824,3.179 -7.01,4.889 -7.974,4.308 -0.948,-0.584 -9.785,-8.995 -13.238,-9.829 -3.445,-0.819 2.751,11.12 -2.36,14.448 0,0 0.456,3.319 -2.513,8.095 -2.98,4.779 -5.852,2.993 -23.06,-15.553 0,0 7.193,17.594 7.128,23.669 -0.048,6.065 -6.748,7.462 -6.748,7.462 0,0 -12.524,-9.52 -16.154,-8.346 -3.655,1.178 5.994,12.834 6.163,16.057 0.052,1.016 -1.388,0.625 -1.388,0.625 0,0 -1.5,1.077 -14.08,-6.259 l -20.4,-12.977 c -1.499,0.912 -3.501,0.743 -2.89,5.582 0.173,1.397 38.093,19.224 36.398,21.096 -1.681,1.856 -14.355,4.958 -14.355,4.958 0,0 7.946,9.583 5.574,10.64 -2.367,1.032 -19.679,2.465 -19.679,2.465 0,0 -2.991,4.754 -2.376,3.815 0.575,-0.948 16.932,2.59 16.932,2.59 l -10.914,8.574 c 0,0 27.602,4.85 3.239,19.519 -9.017,5.419 -18.429,9.131 -28.598,10.969 25.984,-1.285 43.171,5.288 40.255,14.803 0,0 -0.827,3.453 -26.732,12.915 0,0 0.722,3.09 2.449,3.507 1.737,0.418 28.671,-9.442 26.768,-7.859 -1.921,1.589 -11.781,12.552 -10.004,12.452 1.781,-0.079 14.428,-5.428 18.623,-1.495 4.017,3.759 6.543,10.685 9.184,12.189 2.646,1.507 -7.042,10.469 5.724,6.343 0,0 8.652,4.858 1.835,12.8 -6.816,7.968 -28.428,33.523 6.829,2.668 8.43,-7.385 29.525,15.118 27.787,27.359 0,0 8.43,-8.496 10.217,-9.403 1.782,-0.918 13.585,-2.322 16.267,1.766 1.234,1.884 -4.332,19.303 -0.755,26.969 0,0 1.505,0.134 2.921,-1.493 1.42,-1.64 1.581,-19.813 7.986,-23.265 0,0 7.188,4.213 8.401,7.357 1.227,3.15 -1.951,-19.638 19.619,-9.806 0,0 10.5,9.326 13.513,9.606 2.993,0.28 -2.255,-11.078 0.395,-15.115 2.667,-4.054 11.505,-6.762 14.311,-1.695 2.823,5.053 16.276,15.162 17.324,14.757 1.048,-0.421 -6.844,-21.476 -7.752,-23.542 -1.315,-3.011 -2.243,-7.468 -2.243,-7.468 0,0 1.029,-5.88 8.378,-7.5 0,0 13.879,8.107 28.319,18.631 -1.513,-1.821 -3.041,-3.713 -4.582,-5.736 0,0 -18.683,-19.189 -18.687,-21.966 0.024,-2.775 6.405,-9.011 11.64,-5.484 5.236,3.506 17.877,8.743 18.982,7.835 1.089,-0.902 3.102,-3.499 0.476,-5.019 -2.638,-1.503 -17.34,-9.193 -17.34,-9.193 0,0 16.795,-1.149 37.338,3.005 -22.237,-9.023 -29.945,-22.757 -29.746,-24.058 0.656,-4.41 35.216,4.548 36.164,2.366 4.957,-11.254 -10.948,-4.3 -17.934,-5.476"
       inkscape:export-xdpi="4.9299998"
       inkscape:export-ydpi="4.9299998" /></g></svg>